{
  "accessors": [
    {
      "bufferView": 2,
      "componentType": 5126,
      "count": 230,
      "max": [
        20.314584732055664,
        8.2408180236816406,
        0.59872853755950928
      ],
      "min": [
        -20.314584732055664,
        -8.2408180236816406,
        -10
      ],
      "type": "VEC3"
    },
    {
      "bufferView": 2,
      "byteOffset": 2760,
      "componentType": 5126,
      "count": 230,
      "max": [
        1,
        1,
        1
      ],
      "min": [
        -1,
        -1,
        -1
      ],
      "type": "VEC3"
    },
    {
      "bufferView": 1,
      "componentType": 5126,
      "count": 230,
      "max": [
        1,
        1
      ],
      "min": [
        0,
        0
      ],
      "type": "VEC2"
    },
    {
      "bufferView": 0,
      "componentType": 5125,
      "count": 372,
      "max": [
        229
      ],
      "min": [
        0
      ],
      "type": "SCALAR"
    },
    {
      "bufferView": 2,
      "byteOffset": 5520,
      "componentType": 5126,
      "count": 443,
      "max": [
        21.160148620605469,
        48.315086364746094,
        27.694318771362305
      ],
      "min": [
        -21.160148620605469,
        -48.315086364746094,
        -15
      ],
      "type": "VEC3"
    },
    {
      "bufferView": 2,
      "byteOffset": 10836,
      "componentType": 5126,
      "count": 443,
      "max": [
        1,
        1,
        1
      ],
      "min": [
        -1,
        -1,
        -1
      ],
      "type": "VEC3"
    },
    {
      "bufferView": 1,
      "byteOffset": 1840,
      "componentType": 5126,
      "count": 443,
      "max": [
        1.0000048875808716,
        10.278782844543457
      ],
      "min": [
        -8.3819031715393066e-08,
        -5.5672693252563477
      ],
      "type": "VEC2"
    },
    {
      "bufferView": 0,
      "byteOffset": 1488,
      "componentType": 5125,
      "count": 840,
      "max": [
        442
      ],
      "min": [
        0
      ],
      "type": "SCALAR"
    },
    {
      "bufferView": 2,
      "byteOffset": 16152,
      "componentType": 5126,
      "count": 24,
      "max": [
        14.166141510009766,
        31.438879013061523,
        3.4850788116455078
      ],
      "min": [
        -14.166141510009766,
        -31.438879013061523,
        0
      ],
      "type": "VEC3"
    },
    {
      "bufferView": 2,
      "byteOffset": 16440,
      "componentType": 5126,
      "count": 24,
      "max": [
        1,
        1,
        1
      ],
      "min": [
        -1,
        -1,
        -1
      ],
      "type": "VEC3"
    },
    {
      "bufferView": 1,
      "byteOffset": 5384,
      "componentType": 5126,
      "count": 24,
      "max": [
        1,
        1
      ],
      "min": [
        0,
        0
      ],
      "type": "VEC2"
    },
    {
      "bufferView": 0,
      "byteOffset": 4848,
      "componentType": 5125,
      "count": 36,
      "max": [
        23
      ],
      "min": [
        0
      ],
      "type": "SCALAR"
    },
    {
      "bufferView": 2,
      "byteOffset": 16728,
      "componentType": 5126,
      "count": 212,
      "max": [
        13.048861503601074,
        6.6168680191040039,
        2.5228099822998047
      ],
      "min": [
        -13.048861503601074,
        -6.6168680191040039,
        0
      ],
      "type": "VEC3"
    },
    {
      "bufferView": 2,
      "byteOffset": 19272,
      "componentType": 5126,
      "count": 212,
      "max": [
        1,
        1,
        1
      ],
      "min": [
        -1,
        -1,
        -1
      ],
      "type": "VEC3"
    },
    {
      "bufferView": 1,
      "byteOffset": 5576,
      "componentType": 5126,
      "count": 212,
      "max": [
        1,
        1
      ],
      "min": [
        0,
        0
      ],
      "type": "VEC2"
    },
    {
      "bufferView": 0,
      "byteOffset": 4992,
      "componentType": 5125,
      "count": 324,
      "max": [
        211
      ],
      "min": [
        0
      ],
      "type": "SCALAR"
    },
    {
      "bufferView": 2,
      "byteOffset": 21816,
      "componentType": 5126,
      "count": 24,
      "max": [
        1.5578385591506958,
        1.2634773254394531,
        1.4600262641906738
      ],
      "min": [
        -1.5578385591506958,
        -1.2634773254394531,
        0
      ],
      "type": "VEC3"
    },
    {
      "bufferView": 2,
      "byteOffset": 22104,
      "componentType": 5126,
      "count": 24,
      "max": [
        1,
        1,
        1
      ],
      "min": [
        -1,
        -1,
        -1
      ],
      "type": "VEC3"
    },
    {
      "bufferView": 1,
      "byteOffset": 7272,
      "componentType": 5126,
      "count": 24,
      "max": [
        1,
        1
      ],
      "min": [
        0,
        0
      ],
      "type": "VEC2"
    },
    {
      "bufferView": 0,
      "byteOffset": 6288,
      "componentType": 5125,
      "count": 36,
      "max": [
        23
      ],
      "min": [
        0
      ],
      "type": "SCALAR"
    },
    {
      "bufferView": 2,
      "byteOffset": 22392,
      "componentType": 5126,
      "count": 24,
      "max": [
        1.5578385591506958,
        1.2634773254394531,
        1.4600262641906738
      ],
      "min": [
        -1.5578385591506958,
        -1.2634773254394531,
        0
      ],
      "type": "VEC3"
    },
    {
      "bufferView": 2,
      "byteOffset": 22680,
      "componentType": 5126,
      "count": 24,
      "max": [
        1,
        1,
        1
      ],
      "min": [
        -1,
        -1,
        -1
      ],
      "type": "VEC3"
    },
    {
      "bufferView": 1,
      "byteOffset": 7464,
      "componentType": 5126,
      "count": 24,
      "max": [
        1,
        1
      ],
      "min": [
        0,
        0
      ],
      "type": "VEC2"
    },
    {
      "bufferView": 0,
      "byteOffset": 6432,
      "componentType": 5125,
      "count": 36,
      "max": [
        23
      ],
      "min": [
        0
      ],
      "type": "SCALAR"
    },
    {
      "bufferView": 2,
      "byteOffset": 22968,
      "componentType": 5126,
      "count": 24,
      "max": [
        1.5578385591506958,
        1.2634773254394531,
        1.4600262641906738
      ],
      "min": [
        -1.5578385591506958,
        -1.2634773254394531,
        0
      ],
      "type": "VEC3"
    },
    {
      "bufferView": 2,
      "byteOffset": 23256,
      "componentType": 5126,
      "count": 24,
      "max": [
        1,
        1,
        1
      ],
      "min": [
        -1,
        -1,
        -1
      ],
      "type": "VEC3"
    },
    {
      "bufferView": 1,
      "byteOffset": 7656,
      "componentType": 5126,
      "count": 24,
      "max": [
        1,
        1
      ],
      "min": [
        0,
        0
      ],
      "type": "VEC2"
    },
    {
      "bufferView": 0,
      "byteOffset": 6576,
      "componentType": 5125,
      "count": 36,
      "max": [
        23
      ],
      "min": [
        0
      ],
      "type": "SCALAR"
    },
    {
      "bufferView": 2,
      "byteOffset": 23544,
      "componentType": 5126,
      "count": 24,
      "max": [
        1.5578385591506958,
        1.2634773254394531,
        1.4600262641906738
      ],
      "min": [
        -1.5578385591506958,
        -1.2634773254394531,
        0
      ],
      "type": "VEC3"
    },
    {
      "bufferView": 2,
      "byteOffset": 23832,
      "componentType": 5126,
      "count": 24,
      "max": [
        1,
        1,
        1
      ],
      "min": [
        -1,
        -1,
        -1
      ],
      "type": "VEC3"
    },
    {
      "bufferView": 1,
      "byteOffset": 7848,
      "componentType": 5126,
      "count": 24,
      "max": [
        1,
        1
      ],
      "min": [
        0,
        0
      ],
      "type": "VEC2"
    },
    {
      "bufferView": 0,
      "byteOffset": 6720,
      "componentType": 5125,
      "count": 36,
      "max": [
        23
      ],
      "min": [
        0
      ],
      "type": "SCALAR"
    },
    {
      "bufferView": 2,
      "byteOffset": 24120,
      "componentType": 5126,
      "count": 367,
      "max": [
        11.511848449707031,
        29.453121185302734,
        70.775299072265625
      ],
      "min": [
        -13.511848449707031,
        -29.453121185302734,
        -3
      ],
      "type": "VEC3"
    },
    {
      "bufferView": 2,
      "byteOffset": 28524,
      "componentType": 5126,
      "count": 367,
      "max": [
        1,
        1,
        1
      ],
      "min": [
        -1,
        -1,
        -1
      ],
      "type": "VEC3"
    },
    {
      "bufferView": 1,
      "byteOffset": 8040,
      "componentType": 5126,
      "count": 367,
      "max": [
        1.086867094039917,
        1
      ],
      "min": [
        -0.086867012083530426,
        0
      ],
      "type": "VEC2"
    },
    {
      "bufferView": 0,
      "byteOffset": 6864,
      "componentType": 5125,
      "count": 720,
      "max": [
        366
      ],
      "min": [
        0
      ],
      "type": "SCALAR"
    }
  ],
  "asset": {
    "extras": {
      "author": "Márcio Nunes (https://sketchfab.com/marcionunesjs)",
      "license": "SKETCHFAB Standard (https://sketchfab.com/licenses)",
      "source": "https://sketchfab.com/3d-models/low-poly-bedroom-6260327aceef435482f6327ef71aa8cf",
      "title": "Low Poly Bedroom"
    },
    "generator": "Sketchfab-7.87.0",
    "version": "2.0"
  },
  "bufferViews": [
    {
      "buffer": 0,
      "byteLength": 9744,
      "byteOffset": 0,
      "name": "floatBufferViews",
      "target": 34963
    },
    {
      "buffer": 0,
      "byteLength": 10976,
      "byteOffset": 9744,
      "byteStride": 8,
      "name": "floatBufferViews",
      "target": 34962
    },
    {
      "buffer": 0,
      "byteLength": 32928,
      "byteOffset": 20720,
      "byteStride": 12,
      "name": "floatBufferViews",
      "target": 34962
    }
  ],
  "buffers": [
    {
      "byteLength": 53648,
      "uri": "scene.bin"
    }
  ],
  "materials": [
    {
      "doubleSided": true,
      "emissiveFactor": [
        0,
        0,
        0
      ],
      "name": "Material_54",
      "pbrMetallicRoughness": {
        "baseColorFactor": [
          0.57758044042965062,
          0.25818285292159582,
          0.1144353738269737,
          1
        ],
        "metallicFactor": 0,
        "roughnessFactor": 0.22999237804878048
      }
    },
    {
      "doubleSided": true,
      "emissiveFactor": [
        0,
        0,
        0
      ],
      "name": "Material_53",
      "pbrMetallicRoughness": {
        "baseColorFactor": [
          0.57758044042965062,
          0.25818285292159582,
          0.1144353738269737,
          1
        ],
        "metallicFactor": 0,
        "roughnessFactor": 0.21199999999999997
      }
    },
    {
      "doubleSided": true,
      "emissiveFactor": [
        0,
        0,
        0
      ],
      "name": "Material_50",
      "pbrMetallicRoughness": {
        "baseColorFactor": [
          1,
          1,
          1,
          1
        ],
        "metallicFactor": 0,
        "roughnessFactor": 1
      }
    },
    {
      "doubleSided": true,
      "emissiveFactor": [
        0,
        0,
        0
      ],
      "name": "Material_52",
      "pbrMetallicRoughness": {
        "baseColorFactor": [
          1,
          1,
          1,
          1
        ],
        "metallicFactor": 0,
        "roughnessFactor": 1
      }
    },
    {
      "doubleSided": true,
      "emissiveFactor": [
        0,
        0,
        0
      ],
      "name": "Material_48",
      "pbrMetallicRoughness": {
        "baseColorFactor": [
          0,
          0,
          0,
          1
        ],
        "metallicFactor": 0,
        "roughnessFactor": 0
      }
    },
    {
      "doubleSided": true,
      "emissiveFactor": [
        0,
        0,
        0
      ],
      "name": "Material_47",
      "pbrMetallicRoughness": {
        "baseColorFactor": [
          0.57571940139161815,
          0.25908718848047013,
          0.11331531074962084,
          1
        ],
        "metallicFactor": 0,
        "roughnessFactor": 0.21169969509999997
      }
    }
  ],
  "meshes": [
    {
      "name": "Box001_Material #54_0",
      "primitives": [
        {
          "attributes": {
            "NORMAL": 1,
            "POSITION": 0,
            "TEXCOORD_0": 2
          },
          "indices": 3,
          "material": 0,
          "mode": 4
        }
      ]
    },
    {
      "name": "Box002_Material #53_0",
      "primitives": [
        {
          "attributes": {
            "NORMAL": 5,
            "POSITION": 4,
            "TEXCOORD_0": 6
          },
          "indices": 7,
          "material": 1,
          "mode": 4
        }
      ]
    },
    {
      "name": "Box003_Material #50_0",
      "primitives": [
        {
          "attributes": {
            "NORMAL": 9,
            "POSITION": 8,
            "TEXCOORD_0": 10
          },
          "indices": 11,
          "material": 2,
          "mode": 4
        }
      ]
    },
    {
      "name": "Box004_Material #52_0",
      "primitives": [
        {
          "attributes": {
            "NORMAL": 13,
            "POSITION": 12,
            "TEXCOORD_0": 14
          },
          "indices": 15,
          "material": 3,
          "mode": 4
        }
      ]
    },
    {
      "name": "Box006_Material #48_0",
      "primitives": [
        {
          "attributes": {
            "NORMAL": 17,
            "POSITION": 16,
            "TEXCOORD_0": 18
          },
          "indices": 19,
          "material": 4,
          "mode": 4
        }
      ]
    },
    {
      "name": "Box007_Material #48_0",
      "primitives": [
        {
          "attributes": {
            "NORMAL": 21,
            "POSITION": 20,
            "TEXCOORD_0": 22
          },
          "indices": 23,
          "material": 4,
          "mode": 4
        }
      ]
    },
    {
      "name": "Box008_Material #48_0",
      "primitives": [
        {
          "attributes": {
            "NORMAL": 25,
            "POSITION": 24,
            "TEXCOORD_0": 26
          },
          "indices": 27,
          "material": 4,
          "mode": 4
        }
      ]
    },
    {
      "name": "Box009_Material #48_0",
      "primitives": [
        {
          "attributes": {
            "NORMAL": 29,
            "POSITION": 28,
            "TEXCOORD_0": 30
          },
          "indices": 31,
          "material": 4,
          "mode": 4
        }
      ]
    },
    {
      "name": "Box005_Material #47_0",
      "primitives": [
        {
          "attributes": {
            "NORMAL": 33,
            "POSITION": 32,
            "TEXCOORD_0": 34
          },
          "indices": 35,
          "material": 5,
          "mode": 4
        }
      ]
    }
  ],
  "nodes": [
    {
      "children": [
        1
      ],
      "name": "RootNode (gltf orientation matrix)",
      "rotation": [
        -0.70710678118654746,
        -0,
        -0,
        0.70710678118654757
      ]
    },
    {
      "children": [
        2
      ],
      "name": "RootNode (model correction matrix)"
    },
    {
      "children": [
        3
      ],
      "matrix": [
        1,
        0,
        0,
        0,
        0,
        0,
        1,
        0,
        0,
        -1,
        0,
        0,
        0,
        0,
        0,
        1
      ],
      "name": "7c66f864b6b34f5ba029074f656d603e.fbx"
    },
    {
      "children": [
        4,
        6,
        8,
        10,
        12
      ],
      "name": "RootNode"
    },
    {
      "children": [
        5
      ],
      "matrix": [
        1.1451250314712524,
        0,
        0,
        0,
        0,
        2.5426883520279829e-16,
        -1.1451250314712524,
        0,
        0,
        1.1451250314712524,
        2.5426883520279829e-16,
        0,
        0,
        12,
        0,
        1
      ],
      "name": "Box001"
    },
    {
      "mesh": 0,
      "name": "Box001_Material #54_0"
    },
    {
      "children": [
        7
      ],
      "matrix": [
        0.70358800888061523,
        0,
        0,
        0,
        0,
        1.5622792146188563e-16,
        -0.70358800888061523,
        0,
        0,
        0.70358800888061523,
        1.5622792146188563e-16,
        0,
        -50.647193908691406,
        12,
        -24.00616455078125,
        1
      ],
      "name": "Box002"
    },
    {
      "mesh": 1,
      "name": "Box002_Material #53_0"
    },
    {
      "children": [
        9
      ],
      "matrix": [
        1,
        0,
        0,
        0,
        0,
        2.2204460492503131e-16,
        -1,
        0,
        0,
        1,
        2.2204460492503131e-16,
        0,
        -50.591567993164062,
        13.895681381225586,
        -25.598508834838867,
        1
      ],
      "name": "Box003"
    },
    {
      "mesh": 2,
      "name": "Box003_Material #50_0"
    },
    {
      "children": [
        11
      ],
      "matrix": [
        1,
        0,
        0,
        0,
        0,
        2.2204460492503131e-16,
        -1,
        0,
        0,
        1,
        2.2204460492503131e-16,
        0,
        -50.569694519042969,
        17.380758285522461,
        -1.8484592437744141,
        1
      ],
      "name": "Box004"
    },
    {
      "mesh": 3,
      "name": "Box004_Material #52_0"
    },
    {
      "children": [
        13,
        15,
        17,
        19,
        21
      ],
      "matrix": [
        1,
        0,
        0,
        0,
        0,
        2.2204460492503131e-16,
        -1,
        0,
        0,
        1,
        2.2204460492503131e-16,
        0,
        56.602020263671875,
        37.602302551269531,
        -41.499088287353516,
        1
      ],
      "name": "Group001"
    },
    {
      "children": [
        14
      ],
      "matrix": [
        -1.6292068516499114e-07,
        -0.9999999999999869,
        0,
        0,
        -1.6292068499845769e-07,
        2.6423307986078726e-14,
        0.9999999999999869,
        0,
        -0.99999999999997358,
        1.6292068499845769e-07,
        -1.6292068516499114e-07,
        0,
        -11.281837463378906,
        4.3732376098632812,
        5.7881851196289062,
        1
      ],
      "name": "Box006"
    },
    {
      "mesh": 4,
      "name": "Box006_Material #48_0"
    },
    {
      "children": [
        16
      ],
      "matrix": [
        -1.6292068516499114e-07,
        -0.9999999999999869,
        0,
        0,
        -1.6292068499845769e-07,
        2.6423307986078726e-14,
        0.9999999999999869,
        0,
        -0.99999999999997358,
        1.6292068499845769e-07,
        -1.6292068516499114e-07,
        0,
        -11.281837463378906,
        -23.412769317626953,
        5.7881851196289062,
        1
      ],
      "name": "Box007"
    },
    {
      "mesh": 5,
      "name": "Box007_Material #48_0"
    },
    {
      "children": [
        18
      ],
      "matrix": [
        -1.6292068516499114e-07,
        -0.9999999999999869,
        0,
        0,
        -1.6292068499845769e-07,
        2.6423307986078726e-14,
        0.9999999999999869,
        0,
        -0.99999999999997358,
        1.6292068499845769e-07,
        -1.6292068516499114e-07,
        0,
        -11.281837463378906,
        -23.412769317626953,
        -12.486454010009766,
        1
      ],
      "name": "Box008"
    },
    {
      "mesh": 6,
      "name": "Box008_Material #48_0"
    },
    {
      "children": [
        20
      ],
      "matrix": [
        -1.6292068516499114e-07,
        -0.9999999999999869,
        0,
        0,
        -1.6292068499845769e-07,
        2.6423307986078726e-14,
        0.9999999999999869,
        0,
        -0.99999999999997358,
        1.6292068499845769e-07,
        -1.6292068516499114e-07,
        0,
        -11.281837463378906,
        -23.412769317626953,
        -29.874794006347656,
        1
      ],
      "name": "Box009"
    },
    {
      "mesh": 7,
      "name": "Box009_Material #48_0"
    },
    {
      "children": [
        22
      ],
      "matrix": [
        1,
        0,
        0,
        0,
        0,
        1,
        0,
        0,
        0,
        0,
        1,
        0,
        1.2300186157226562,
        0,
        -33.887649536132812,
        1
      ],
      "name": "Box005"
    },
    {
      "mesh": 8,
      "name": "Box005_Material #47_0"
    }
  ],
  "scene": 0,
  "scenes": [
    {
      "name": "OSG_Scene",
      "nodes": [
        0
      ]
    }
  ]
}

